<svg width="88" height="83" viewBox="0 0 88 83" fill="none" xmlns="http://www.w3.org/2000/svg">
<path d="M86.83 23.4857L58.83 1.39195C58.4583 1.09895 58.017 0.866602 57.5314 0.708195C57.0458 0.549789 56.5254 0.468425 56 0.468751H8C5.87827 0.468751 3.84344 1.13382 2.34315 2.31764C0.842854 3.50146 0 5.10707 0 6.78125V76.2188C0 77.8929 0.842854 79.4985 2.34315 80.6824C3.84344 81.8662 5.87827 82.5312 8 82.5312H80C82.1217 82.5312 84.1566 81.8662 85.6569 80.6824C87.1571 79.4985 88 77.8929 88 76.2188V25.7188C88.0004 25.3041 87.8973 24.8935 87.6965 24.5104C87.4958 24.1272 87.2013 23.779 86.83 23.4857ZM60 11.2434L74.345 22.5625H60V11.2434ZM80 76.2188H8V6.78125H52V25.7188C52 26.5558 52.4214 27.3586 53.1716 27.9506C53.9217 28.5425 54.9391 28.875 56 28.875H80V76.2188Z" fill="black"/>
</svg>
