<svg width="36" height="23" viewBox="0 0 36 23" fill="none" xmlns="http://www.w3.org/2000/svg">
<path fill-rule="evenodd" clip-rule="evenodd" d="M35.5 1.76465C35.5 2.15419 35.342 2.52777 35.0607 2.80321C34.7794 3.07866 34.3978 3.2334 34 3.2334H2C1.60218 3.2334 1.22064 3.07866 0.93934 2.80321C0.658035 2.52777 0.5 2.15419 0.5 1.76465C0.5 1.37511 0.658035 1.00153 0.93934 0.726085C1.22064 0.450641 1.60218 0.295898 2 0.295898H34C34.3978 0.295898 34.7794 0.450641 35.0607 0.726085C35.342 1.00153 35.5 1.37511 35.5 1.76465ZM35.5 11.5563C35.5 11.9459 35.342 12.3194 35.0607 12.5949C34.7794 12.8703 34.3978 13.0251 34 13.0251H2C1.60218 13.0251 1.22064 12.8703 0.93934 12.5949C0.658035 12.3194 0.5 11.9459 0.5 11.5563C0.5 11.1668 0.658035 10.7932 0.93934 10.5178C1.22064 10.2423 1.60218 10.0876 2 10.0876H34C34.3978 10.0876 34.7794 10.2423 35.0607 10.5178C35.342 10.7932 35.5 11.1668 35.5 11.5563ZM35.5 21.348C35.5 21.7375 35.342 22.1111 35.0607 22.3865C34.7794 22.662 34.3978 22.8167 34 22.8167H2C1.60218 22.8167 1.22064 22.662 0.93934 22.3865C0.658035 22.1111 0.5 21.7375 0.5 21.348C0.5 20.9584 0.658035 20.5849 0.93934 20.3094C1.22064 20.034 1.60218 19.8792 2 19.8792H34C34.3978 19.8792 34.7794 20.034 35.0607 20.3094C35.342 20.5849 35.5 20.9584 35.5 21.348Z" fill="#F1F1F1"/>
</svg>
