<svg width="30" height="30" viewBox="0 0 30 30" fill="none" xmlns="http://www.w3.org/2000/svg">
<path d="M21.1875 18.8064H19.9038L19.4488 18.3677C21.0963 16.4567 22.0018 14.017 22 11.4939C22 9.40484 21.3805 7.36269 20.2199 5.62569C19.0593 3.8887 17.4096 2.53487 15.4796 1.73542C13.5496 0.935973 11.4258 0.7268 9.37686 1.13436C7.32794 1.54191 5.44588 2.54789 3.96869 4.02509C2.4915 5.50228 1.48552 7.38433 1.07796 9.43326C0.670404 11.4822 0.879577 13.606 1.67903 15.536C2.47848 17.466 3.8323 19.1157 5.56929 20.2763C7.30629 21.4369 9.34844 22.0564 11.4375 22.0564C14.0538 22.0564 16.4588 21.0977 18.3113 19.5052L18.75 19.9602V21.2439L26.875 29.3527L29.2963 26.9314L21.1875 18.8064ZM11.4375 18.8064C7.39125 18.8064 4.12501 15.5402 4.12501 11.4939C4.12501 7.44765 7.39125 4.1814 11.4375 4.1814C15.4838 4.1814 18.75 7.44765 18.75 11.4939C18.75 15.5402 15.4838 18.8064 11.4375 18.8064Z" fill="black"/>
</svg>
