<svg width="55" height="55" viewBox="0 0 55 55" fill="none" xmlns="http://www.w3.org/2000/svg">
<path fill-rule="evenodd" clip-rule="evenodd" d="M27.5 51.9315C40.9617 51.9315 51.875 41.0182 51.875 27.5565C51.875 14.0947 40.9617 3.18148 27.5 3.18148C14.0382 3.18148 3.12496 14.0947 3.12496 27.5565C3.12496 41.0182 14.0382 51.9315 27.5 51.9315ZM27.5 54.6398C42.4581 54.6398 54.5833 42.5146 54.5833 27.5565C54.5833 12.5984 42.4581 0.473145 27.5 0.473145C12.5418 0.473145 0.416626 12.5984 0.416626 27.5565C0.416626 42.5146 12.5418 54.6398 27.5 54.6398Z" fill="#F1F1F1"/>
<path d="M11.25 43.3055C11.25 41.9067 12.2954 40.7245 13.6875 40.5701C24.1349 39.4137 30.9125 39.5179 41.3369 40.5958C41.8574 40.6505 42.3508 40.8556 42.7567 41.186C43.1626 41.5165 43.4636 41.958 43.6227 42.4566C43.7818 42.9553 43.7923 43.4895 43.6528 43.994C43.5133 44.4985 43.23 44.9514 42.8373 45.2975C30.5347 56.0212 23.5039 55.8736 12.1167 45.3083C11.5615 44.7938 11.25 44.0612 11.25 43.3055Z" fill="#F1F1F1"/>
<path fill-rule="evenodd" clip-rule="evenodd" d="M41.1973 41.9417C30.8556 40.872 24.1754 40.7717 13.835 41.916C13.4947 41.9557 13.1809 42.1195 12.9537 42.3761C12.7266 42.6327 12.6021 42.9641 12.6041 43.3067C12.6041 43.694 12.7652 44.061 13.0374 44.3156C18.6816 49.5508 22.9581 51.9165 27.1384 51.9314C31.3336 51.9463 35.8402 49.5996 41.9475 44.2777C42.1416 44.105 42.2812 43.8797 42.3496 43.6291C42.4179 43.3785 42.412 43.1134 42.3326 42.8661C42.2531 42.6188 42.1035 42.4 41.902 42.2361C41.7004 42.0722 41.4556 41.9691 41.1973 41.9417ZM13.5385 39.2239C24.0956 38.0553 30.972 38.1609 41.4776 39.2483C42.2607 39.33 43.003 39.6384 43.6136 40.1355C44.2242 40.6326 44.6767 41.2969 44.9155 42.0472C45.1543 42.7975 45.1692 43.6011 44.9584 44.3597C44.7475 45.1183 44.32 45.799 43.7283 46.3184C37.533 51.7188 32.3736 54.6601 27.1302 54.6398C21.872 54.6208 16.9401 51.6295 11.1971 46.3008C10.7859 45.9178 10.4581 45.4541 10.2342 44.9387C10.0103 44.4234 9.89509 43.8673 9.89576 43.3054C9.89378 42.2958 10.2644 41.3209 10.9365 40.5675C11.6087 39.8142 12.5351 39.3366 13.5385 39.2239Z" fill="#F1F1F1"/>
<path d="M38.3333 22.1397C38.3333 25.0129 37.1919 27.7684 35.1603 29.8001C33.1286 31.8317 30.3731 32.9731 27.5 32.9731C24.6268 32.9731 21.8713 31.8317 19.8396 29.8001C17.808 27.7684 16.6666 25.0129 16.6666 22.1397C16.6666 19.2666 17.808 16.511 19.8396 14.4794C21.8713 12.4478 24.6268 11.3064 27.5 11.3064C30.3731 11.3064 33.1286 12.4478 35.1603 14.4794C37.1919 16.511 38.3333 19.2666 38.3333 22.1397Z" fill="#F1F1F1"/>
<path fill-rule="evenodd" clip-rule="evenodd" d="M27.5 30.2647C29.6548 30.2647 31.7215 29.4087 33.2452 27.885C34.7689 26.3612 35.625 24.2946 35.625 22.1397C35.625 19.9848 34.7689 17.9182 33.2452 16.3945C31.7215 14.8708 29.6548 14.0147 27.5 14.0147C25.3451 14.0147 23.2784 14.8708 21.7547 16.3945C20.231 17.9182 19.375 19.9848 19.375 22.1397C19.375 24.2946 20.231 26.3612 21.7547 27.885C23.2784 29.4087 25.3451 30.2647 27.5 30.2647ZM27.5 32.9731C30.3731 32.9731 33.1286 31.8317 35.1603 29.8001C37.1919 27.7684 38.3333 25.0129 38.3333 22.1397C38.3333 19.2666 37.1919 16.511 35.1603 14.4794C33.1286 12.4478 30.3731 11.3064 27.5 11.3064C24.6268 11.3064 21.8713 12.4478 19.8396 14.4794C17.808 16.511 16.6666 19.2666 16.6666 22.1397C16.6666 25.0129 17.808 27.7684 19.8396 29.8001C21.8713 31.8317 24.6268 32.9731 27.5 32.9731Z" fill="#F1F1F1"/>
</svg>
